<svg width="65" height="60" viewBox="0 0 65 60" fill="none" xmlns="http://www.w3.org/2000/svg">
<rect x="1.03174" y="1.03174" width="62.9365" height="57.9365" fill="#DB9D36" stroke="black" stroke-width="2.06347"/>
<rect x="15.469" y="4.81865" width="34.1383" height="34.8187" rx="9.55311" fill="black"/>
<rect x="25.0704" y="12.5129" width="14.8593" height="19.5078" fill="#DB9D36"/>
<rect x="26.2896" y="18.0311" width="12.4209" height="12.6684" fill="black"/>
<ellipse cx="32.5" cy="24.6373" rx="4.6864" ry="4.81865" fill="#DB9D36"/>
<path d="M34.4051 24.715C34.4051 25.0462 34.4897 25.4145 34.7861 25.6865C35.1671 26.0363 35.607 25.909 35.4719 26.2306C34.9349 27.5085 33.553 28.057 32.4619 28.057C30.5681 28.057 29.0328 26.5085 29.0328 24.5984C29.0328 22.6883 30.5681 21.1399 32.4619 21.1399C33.5753 21.1399 35.0147 21.9171 35.5862 23.1606C35.6243 23.4326 35.2814 23.3549 34.8623 23.7435C34.6337 24.0155 34.4051 24.3525 34.4051 24.715Z" fill="black"/>
<rect x="26.2896" y="13.5233" width="12.4209" height="3.10881" fill="black"/>
<rect x="27.585" y="14.456" width="3.42907" height="1.32124" fill="#DB9D36"/>
<rect x="33.5287" y="14.456" width="1.29543" height="1.32124" fill="#DB9D36"/>
<rect x="36.1196" y="14.456" width="1.29543" height="1.32124" fill="#DB9D36"/>
<path d="M13.8658 44.5363V45.427H11.132V50.5129H10.0072V44.5363H13.8658ZM10.7666 46.7734H12.2156C12.6781 46.7734 13.0749 46.8514 13.4061 47.0074C13.7372 47.1607 13.9903 47.3755 14.1654 47.6519C14.3433 47.9283 14.4323 48.2525 14.4323 48.6247C14.4323 48.9038 14.3816 49.1583 14.2804 49.3882C14.1819 49.6181 14.0368 49.8179 13.8453 49.9875C13.6537 50.1545 13.4211 50.2844 13.1474 50.3775C12.8738 50.4678 12.5632 50.5129 12.2156 50.5129H10.0072V44.5363H11.1402V49.6263H12.2156C12.4619 49.6263 12.6658 49.5798 12.8273 49.4867C12.9887 49.3937 13.1091 49.2705 13.1885 49.1173C13.2679 48.964 13.3075 48.7971 13.3075 48.6165C13.3075 48.4386 13.2679 48.2772 13.1885 48.1321C13.1091 47.9871 12.9887 47.8722 12.8273 47.7873C12.6658 47.7025 12.4619 47.6601 12.2156 47.6601H10.7666V46.7734ZM16.1561 47.4384H17.4533C17.8473 47.4384 18.1826 47.5041 18.459 47.6354C18.7381 47.7641 18.9502 47.9447 19.0952 48.1773C19.243 48.4072 19.3169 48.674 19.3169 48.9777C19.3169 49.1967 19.2745 49.4005 19.1896 49.5894C19.1075 49.7754 18.9871 49.9383 18.8284 50.0778C18.6697 50.2147 18.474 50.3214 18.2414 50.398C18.0115 50.4746 17.7488 50.5129 17.4533 50.5129H15.4583V46.0715H16.5461V49.6632H17.4533C17.6421 49.6632 17.7926 49.6318 17.9048 49.5688C18.0197 49.5032 18.1018 49.4197 18.1511 49.3184C18.2031 49.2144 18.2291 49.1036 18.2291 48.9859C18.2291 48.8655 18.2031 48.7533 18.1511 48.6493C18.1018 48.5426 18.0197 48.4564 17.9048 48.3907C17.7926 48.3251 17.6421 48.2922 17.4533 48.2922H16.1561V47.4384ZM21.1394 46.0715V50.5129H20.0516V46.0715H21.1394ZM24.5709 46.0715V50.5129H23.4831V46.0715H24.5709ZM26.0158 46.0715V46.9171H22.0629V46.0715H26.0158ZM26.4795 48.3374V48.2512C26.4795 47.9255 26.526 47.6259 26.6191 47.3522C26.7121 47.0758 26.8476 46.8364 27.0255 46.6339C27.2033 46.4314 27.4209 46.274 27.6781 46.1618C27.9354 46.0469 28.2282 45.9894 28.5566 45.9894C28.8904 45.9894 29.186 46.0469 29.4432 46.1618C29.7032 46.274 29.9221 46.4314 30.1 46.6339C30.2779 46.8364 30.4133 47.0758 30.5064 47.3522C30.5994 47.6259 30.6459 47.9255 30.6459 48.2512V48.3374C30.6459 48.6603 30.5994 48.9599 30.5064 49.2363C30.4133 49.51 30.2779 49.7494 30.1 49.9547C29.9221 50.1572 29.7046 50.3145 29.4473 50.4267C29.1901 50.5389 28.8959 50.595 28.5648 50.595C28.2364 50.595 27.9422 50.5389 27.6822 50.4267C27.4223 50.3145 27.2033 50.1572 27.0255 49.9547C26.8476 49.7494 26.7121 49.51 26.6191 49.2363C26.526 48.9599 26.4795 48.6603 26.4795 48.3374ZM27.5632 48.2512V48.3374C27.5632 48.5317 27.5823 48.7137 27.6207 48.8833C27.659 49.053 27.7178 49.2021 27.7972 49.3307C27.8765 49.4594 27.9791 49.5606 28.105 49.6345C28.2336 49.7057 28.3869 49.7412 28.5648 49.7412C28.7399 49.7412 28.8904 49.7057 29.0163 49.6345C29.1422 49.5606 29.2448 49.4594 29.3242 49.3307C29.4063 49.2021 29.4665 49.053 29.5048 48.8833C29.5431 48.7137 29.5623 48.5317 29.5623 48.3374V48.2512C29.5623 48.0596 29.5431 47.8804 29.5048 47.7134C29.4665 47.5438 29.4063 47.3946 29.3242 47.266C29.2448 47.1347 29.1408 47.032 29.0122 46.9581C28.8863 46.8815 28.7344 46.8432 28.5566 46.8432C28.3814 46.8432 28.2309 46.8815 28.105 46.9581C27.9791 47.032 27.8765 47.1347 27.7972 47.266C27.7178 47.3946 27.659 47.5438 27.6207 47.7134C27.5823 47.8804 27.5632 48.0596 27.5632 48.2512ZM33.786 48.6329H32.378L32.3698 47.8982H33.5274C33.6998 47.8982 33.8407 47.8804 33.9502 47.8448C34.0596 47.8092 34.1404 47.7559 34.1924 47.6847C34.2471 47.6136 34.2745 47.5274 34.2745 47.4261C34.2745 47.3385 34.258 47.2633 34.2252 47.2003C34.1924 47.1347 34.1431 47.0813 34.0774 47.0402C34.0145 46.9992 33.9338 46.9691 33.8352 46.9499C33.7395 46.928 33.6273 46.9171 33.4986 46.9171H32.7639V50.5129H31.6761V46.0715H33.4986C33.786 46.0715 34.0446 46.0975 34.2745 46.1495C34.5043 46.1987 34.7 46.274 34.8615 46.3753C35.0229 46.4765 35.1461 46.6051 35.2309 46.7611C35.3185 46.9144 35.3622 47.095 35.3622 47.303C35.3622 47.4398 35.3321 47.5684 35.2719 47.6888C35.2117 47.8092 35.1228 47.9159 35.0051 48.009C34.8875 48.102 34.7424 48.1787 34.57 48.2389C34.3976 48.2963 34.2006 48.3319 33.9789 48.3456L33.786 48.6329ZM33.786 50.5129H32.0866L32.4888 49.6673H33.786C33.9447 49.6673 34.0761 49.6482 34.18 49.6099C34.284 49.5688 34.3607 49.51 34.4099 49.4334C34.4619 49.3567 34.4879 49.2637 34.4879 49.1542C34.4879 49.0475 34.4633 48.9558 34.414 48.8792C34.3675 48.7999 34.2922 48.7397 34.1883 48.6986C34.087 48.6548 33.9529 48.6329 33.786 48.6329H32.6654L32.6736 47.8982H33.9748L34.2621 48.1896C34.5577 48.2088 34.8026 48.269 34.9969 48.3702C35.1912 48.4687 35.3362 48.5946 35.432 48.7479C35.5278 48.8984 35.5757 49.0639 35.5757 49.2445C35.5757 49.4553 35.536 49.64 35.4567 49.7987C35.3773 49.9574 35.261 50.0901 35.1077 50.1969C34.9545 50.3009 34.767 50.3802 34.5454 50.435C34.3237 50.4869 34.0706 50.5129 33.786 50.5129ZM36.339 48.3374V48.2512C36.339 47.9255 36.3856 47.6259 36.4786 47.3522C36.5716 47.0758 36.7071 46.8364 36.885 46.6339C37.0629 46.4314 37.2804 46.274 37.5377 46.1618C37.7949 46.0469 38.0877 45.9894 38.4161 45.9894C38.75 45.9894 39.0455 46.0469 39.3027 46.1618C39.5627 46.274 39.7816 46.4314 39.9595 46.6339C40.1374 46.8364 40.2729 47.0758 40.3659 47.3522C40.4589 47.6259 40.5055 47.9255 40.5055 48.2512V48.3374C40.5055 48.6603 40.4589 48.9599 40.3659 49.2363C40.2729 49.51 40.1374 49.7494 39.9595 49.9547C39.7816 50.1572 39.5641 50.3145 39.3068 50.4267C39.0496 50.5389 38.7554 50.595 38.4243 50.595C38.0959 50.595 37.8017 50.5389 37.5418 50.4267C37.2818 50.3145 37.0629 50.1572 36.885 49.9547C36.7071 49.7494 36.5716 49.51 36.4786 49.2363C36.3856 48.9599 36.339 48.6603 36.339 48.3374ZM37.4227 48.2512V48.3374C37.4227 48.5317 37.4419 48.7137 37.4802 48.8833C37.5185 49.053 37.5773 49.2021 37.6567 49.3307C37.7361 49.4594 37.8387 49.5606 37.9646 49.6345C38.0932 49.7057 38.2464 49.7412 38.4243 49.7412C38.5994 49.7412 38.75 49.7057 38.8758 49.6345C39.0017 49.5606 39.1043 49.4594 39.1837 49.3307C39.2658 49.2021 39.326 49.053 39.3643 48.8833C39.4026 48.7137 39.4218 48.5317 39.4218 48.3374V48.2512C39.4218 48.0596 39.4026 47.8804 39.3643 47.7134C39.326 47.5438 39.2658 47.3946 39.1837 47.266C39.1043 47.1347 39.0003 47.032 38.8717 46.9581C38.7458 46.8815 38.594 46.8432 38.4161 46.8432C38.2409 46.8432 38.0904 46.8815 37.9646 46.9581C37.8387 47.032 37.7361 47.1347 37.6567 47.266C37.5773 47.3946 37.5185 47.5438 37.4802 47.7134C37.4419 47.8804 37.4227 48.0596 37.4227 48.2512ZM42.5577 48.9654L44.175 46.0715H45.2628V50.5129H44.175V47.6149L42.5577 50.5129H41.4699V46.0715H42.5577V48.9654ZM43.9739 44.3269H44.762C44.762 44.5568 44.7059 44.7607 44.5937 44.9386C44.4815 45.1164 44.3214 45.256 44.1135 45.3573C43.9082 45.4558 43.6647 45.505 43.3828 45.505C42.9586 45.505 42.622 45.3956 42.373 45.1766C42.124 44.9577 41.9995 44.6745 41.9995 44.3269H42.7876C42.7876 44.472 42.8327 44.602 42.9231 44.7169C43.0134 44.8318 43.1666 44.8893 43.3828 44.8893C43.599 44.8893 43.7509 44.8318 43.8384 44.7169C43.9287 44.602 43.9739 44.472 43.9739 44.3269ZM50.3732 44.5363V45.1274L48.0252 50.5129H46.88L49.2279 45.3901H46.1903V44.5363H50.3732ZM55.4795 48.3333V49.1871H51.1735L51.1283 48.5303L53.661 44.5363H54.5271L53.5912 46.1249L52.2325 48.3333H55.4795ZM54.7693 44.5363V50.5129H53.6815V44.5363H54.7693Z" fill="black"/>
<path d="M14.4343 55.7735H14.6636C14.6517 55.8834 14.6202 55.9817 14.5693 56.0685C14.5183 56.1553 14.4463 56.2241 14.3531 56.2751C14.26 56.3252 14.1437 56.3503 14.0044 56.3503C13.9025 56.3503 13.8098 56.3312 13.7262 56.293C13.6434 56.2548 13.5722 56.2006 13.5124 56.1306C13.4527 56.0597 13.4066 55.975 13.3739 55.8762C13.3421 55.7767 13.3262 55.6661 13.3262 55.5443V55.3711C13.3262 55.2493 13.3421 55.1391 13.3739 55.0403C13.4066 54.9408 13.4531 54.8557 13.5136 54.7848C13.5749 54.7139 13.6486 54.6594 13.7346 54.6212C13.8205 54.583 13.9173 54.5639 14.0247 54.5639C14.1561 54.5639 14.2671 54.5886 14.3579 54.6379C14.4486 54.6873 14.5191 54.7557 14.5693 54.8433C14.6202 54.9301 14.6517 55.0308 14.6636 55.1454H14.4343C14.4232 55.0642 14.4025 54.9946 14.3722 54.9365C14.342 54.8775 14.299 54.8322 14.2433 54.8003C14.1875 54.7685 14.1147 54.7526 14.0247 54.7526C13.9475 54.7526 13.8794 54.7673 13.8205 54.7967C13.7624 54.8262 13.7135 54.868 13.6737 54.9221C13.6346 54.9763 13.6052 55.0411 13.5853 55.1168C13.5654 55.1924 13.5554 55.2764 13.5554 55.3687V55.5443C13.5554 55.6295 13.5642 55.7095 13.5817 55.7843C13.6 55.8591 13.6275 55.9248 13.6641 55.9813C13.7007 56.0378 13.7473 56.0824 13.8038 56.1151C13.8603 56.1469 13.9272 56.1628 14.0044 56.1628C14.1023 56.1628 14.1804 56.1473 14.2385 56.1163C14.2966 56.0852 14.3404 56.0406 14.3698 55.9825C14.4001 55.9244 14.4216 55.8547 14.4343 55.7735ZM15.331 55.0344V56.3264H15.1101V55.0344H15.331ZM16.1788 55.0344L15.5662 55.7747H15.2569L15.2235 55.5813H15.4767L15.9101 55.0344H16.1788ZM15.9412 56.3264L15.4659 55.7413L15.608 55.5813L16.2218 56.3264H15.9412ZM16.9238 56.1927L17.2832 55.0344H17.5197L17.0014 56.5259C16.9895 56.5577 16.9736 56.5919 16.9537 56.6285C16.9346 56.666 16.9099 56.7014 16.8796 56.7348C16.8494 56.7683 16.8128 56.7953 16.7698 56.816C16.7276 56.8375 16.677 56.8483 16.6181 56.8483C16.6006 56.8483 16.5783 56.8459 16.5512 56.8411C16.5242 56.8363 16.5051 56.8323 16.4939 56.8292L16.4927 56.65C16.4991 56.6508 16.509 56.6516 16.5226 56.6524C16.5369 56.654 16.5469 56.6548 16.5524 56.6548C16.6026 56.6548 16.6452 56.6481 16.6802 56.6345C16.7152 56.6218 16.7447 56.5999 16.7686 56.5688C16.7933 56.5386 16.8143 56.4968 16.8319 56.4435L16.9238 56.1927ZM16.6599 55.0344L16.9955 56.0374L17.0528 56.2703L16.894 56.3515L16.4187 55.0344H16.6599ZM18.7268 55.0344V55.2171H18.0736V55.0344H18.7268ZM18.1059 55.0344V56.3264H17.8849V55.0344H18.1059ZM18.9227 55.0344V56.3264H18.7005V55.0344H18.9227ZM19.6641 55.0344V56.3264H19.4432V55.0344H19.6641ZM20.5119 55.0344L19.8993 55.7747H19.59L19.5566 55.5813H19.8098L20.2432 55.0344H20.5119ZM20.2743 56.3264L19.799 55.7413L19.9411 55.5813L20.5549 56.3264H20.2743ZM21.6558 56.1055V55.4404C21.6558 55.3894 21.6454 55.3452 21.6247 55.3078C21.6048 55.2696 21.5746 55.2402 21.5339 55.2195C21.4933 55.1988 21.4432 55.1884 21.3835 55.1884C21.3278 55.1884 21.2788 55.198 21.2366 55.2171C21.1952 55.2362 21.1626 55.2613 21.1387 55.2923C21.1156 55.3234 21.1041 55.3568 21.1041 55.3926H20.8831C20.8831 55.3464 20.8951 55.3007 20.919 55.2553C20.9429 55.2099 20.9771 55.1689 21.0217 55.1323C21.067 55.0949 21.1212 55.0654 21.1841 55.0439C21.2478 55.0216 21.3186 55.0105 21.3966 55.0105C21.4906 55.0105 21.5734 55.0264 21.645 55.0583C21.7174 55.0901 21.774 55.1383 21.8146 55.2027C21.856 55.2664 21.8767 55.3464 21.8767 55.4428V56.0446C21.8767 56.0876 21.8802 56.1334 21.8874 56.1819C21.8954 56.2305 21.9069 56.2723 21.922 56.3073V56.3264H21.6916C21.6804 56.301 21.6717 56.2671 21.6653 56.2249C21.6589 56.1819 21.6558 56.1421 21.6558 56.1055ZM21.694 55.5431L21.6964 55.6983H21.473C21.4102 55.6983 21.354 55.7035 21.3047 55.7138C21.2553 55.7234 21.2139 55.7381 21.1805 55.758C21.147 55.7779 21.1216 55.803 21.1041 55.8333C21.0865 55.8627 21.0778 55.8973 21.0778 55.9371C21.0778 55.9777 21.0869 56.0148 21.1053 56.0482C21.1236 56.0816 21.151 56.1083 21.1876 56.1282C21.2251 56.1473 21.2708 56.1569 21.325 56.1569C21.3926 56.1569 21.4524 56.1425 21.5041 56.1139C21.5558 56.0852 21.5968 56.0502 21.6271 56.0088C21.6581 55.9674 21.6749 55.9272 21.6772 55.8882L21.7716 55.9945C21.766 56.0279 21.7509 56.0649 21.7262 56.1055C21.7015 56.1461 21.6685 56.1851 21.6271 56.2225C21.5865 56.2592 21.5379 56.2898 21.4814 56.3145C21.4257 56.3384 21.3628 56.3503 21.2927 56.3503C21.2052 56.3503 21.1283 56.3332 21.0623 56.299C20.997 56.2647 20.946 56.219 20.9094 56.1616C20.8736 56.1035 20.8557 56.0386 20.8557 55.967C20.8557 55.8977 20.8692 55.8368 20.8963 55.7843C20.9233 55.731 20.9624 55.6868 21.0133 55.6517C21.0643 55.6159 21.1256 55.5889 21.1972 55.5705C21.2689 55.5522 21.3489 55.5431 21.4372 55.5431H21.694ZM23.3631 55.9765L23.959 55.0344H24.1811V56.3264H23.959V55.3843L23.3631 56.3264H23.1434V55.0344H23.3631V55.9765ZM26.2968 55.0344V55.2171H25.6436V55.0344H26.2968ZM25.6758 55.0344V56.3264H25.4549V55.0344H25.6758ZM26.4926 55.0344V56.3264H26.2705V55.0344H26.4926ZM27.2149 55.2828V56.8232H26.9928V55.0344H27.1958L27.2149 55.2828ZM28.0855 55.6697V55.6947C28.0855 55.7887 28.0743 55.8758 28.052 55.9562C28.0297 56.0359 27.9971 56.1051 27.9541 56.164C27.9119 56.2229 27.8598 56.2687 27.7977 56.3014C27.7356 56.334 27.6643 56.3503 27.5839 56.3503C27.5019 56.3503 27.4295 56.3368 27.3666 56.3097C27.3037 56.2826 27.2504 56.2432 27.2066 56.1915C27.1628 56.1397 27.1278 56.0777 27.1015 56.0052C27.076 55.9328 27.0585 55.8512 27.049 55.7604V55.6267C27.0585 55.5311 27.0764 55.4456 27.1027 55.3699C27.129 55.2943 27.1636 55.2298 27.2066 55.1765C27.2504 55.1223 27.3033 55.0813 27.3654 55.0535C27.4275 55.0248 27.4991 55.0105 27.5804 55.0105C27.6616 55.0105 27.7336 55.0264 27.7965 55.0583C27.8594 55.0893 27.9123 55.1339 27.9553 55.192C27.9983 55.2501 28.0305 55.3198 28.052 55.401C28.0743 55.4814 28.0855 55.5709 28.0855 55.6697ZM27.8634 55.6947V55.6697C27.8634 55.6052 27.8566 55.5447 27.8431 55.4881C27.8295 55.4308 27.8084 55.3807 27.7798 55.3377C27.7519 55.2939 27.7161 55.2597 27.6723 55.235C27.6285 55.2095 27.5764 55.1968 27.5159 55.1968C27.4601 55.1968 27.4116 55.2063 27.3702 55.2254C27.3296 55.2445 27.295 55.2704 27.2663 55.3031C27.2376 55.3349 27.2141 55.3715 27.1958 55.4129C27.1783 55.4535 27.1652 55.4957 27.1564 55.5395V55.8488C27.1724 55.9045 27.1946 55.957 27.2233 56.0064C27.252 56.055 27.2902 56.0944 27.3379 56.1246C27.3857 56.1541 27.4458 56.1688 27.5183 56.1688C27.578 56.1688 27.6293 56.1565 27.6723 56.1318C27.7161 56.1063 27.7519 56.0717 27.7798 56.0279C27.8084 55.9841 27.8295 55.934 27.8431 55.8774C27.8566 55.8201 27.8634 55.7592 27.8634 55.6947ZM28.4555 55.6947V55.6673C28.4555 55.5741 28.469 55.4877 28.4961 55.4081C28.5232 55.3277 28.5622 55.2581 28.6131 55.1992C28.6641 55.1395 28.7258 55.0933 28.7982 55.0606C28.8707 55.0272 28.9519 55.0105 29.0418 55.0105C29.1326 55.0105 29.2142 55.0272 29.2866 55.0606C29.3599 55.0933 29.422 55.1395 29.4729 55.1992C29.5247 55.2581 29.5641 55.3277 29.5911 55.4081C29.6182 55.4877 29.6317 55.5741 29.6317 55.6673V55.6947C29.6317 55.7879 29.6182 55.8743 29.5911 55.9539C29.5641 56.0335 29.5247 56.1031 29.4729 56.1628C29.422 56.2217 29.3603 56.2679 29.2878 56.3014C29.2162 56.334 29.135 56.3503 29.0442 56.3503C28.9535 56.3503 28.8719 56.334 28.7994 56.3014C28.727 56.2679 28.6649 56.2217 28.6131 56.1628C28.5622 56.1031 28.5232 56.0335 28.4961 55.9539C28.469 55.8743 28.4555 55.7879 28.4555 55.6947ZM28.6764 55.6673V55.6947C28.6764 55.7592 28.684 55.8201 28.6991 55.8774C28.7142 55.934 28.7369 55.9841 28.7672 56.0279C28.7982 56.0717 28.8368 56.1063 28.883 56.1318C28.9292 56.1565 28.9829 56.1688 29.0442 56.1688C29.1047 56.1688 29.1577 56.1565 29.203 56.1318C29.2492 56.1063 29.2874 56.0717 29.3177 56.0279C29.3479 55.9841 29.3706 55.934 29.3857 55.8774C29.4017 55.8201 29.4096 55.7592 29.4096 55.6947V55.6673C29.4096 55.6036 29.4017 55.5435 29.3857 55.487C29.3706 55.4296 29.3475 55.3791 29.3165 55.3353C29.2862 55.2907 29.248 55.2557 29.2018 55.2302C29.1565 55.2047 29.1031 55.192 29.0418 55.192C28.9813 55.192 28.928 55.2047 28.8818 55.2302C28.8364 55.2557 28.7982 55.2907 28.7672 55.3353C28.7369 55.3791 28.7142 55.4296 28.6991 55.487C28.684 55.5435 28.6764 55.6036 28.6764 55.6673ZM30.2024 55.0344H30.4233L30.4042 55.518C30.3994 55.6406 30.3855 55.7465 30.3624 55.8356C30.3393 55.9248 30.3099 56.0008 30.274 56.0637C30.2382 56.1258 30.198 56.178 30.1534 56.2202C30.1096 56.2623 30.0643 56.2978 30.0173 56.3264H29.9074L29.9134 56.1461L29.9588 56.1449C29.9851 56.1139 30.0105 56.082 30.0352 56.0494C30.0599 56.016 30.0826 55.9765 30.1033 55.9312C30.124 55.885 30.1411 55.8289 30.1546 55.7628C30.169 55.6959 30.1781 55.6143 30.1821 55.518L30.2024 55.0344ZM30.2573 55.0344H31.0347V56.3264H30.8138V55.2386H30.2573V55.0344ZM29.8573 56.1449H31.2007V56.7074H30.9798V56.3264H30.0782V56.7074H29.8561L29.8573 56.1449ZM32.3541 56.1055V55.4404C32.3541 55.3894 32.3437 55.3452 32.323 55.3078C32.3031 55.2696 32.2729 55.2402 32.2323 55.2195C32.1917 55.1988 32.1415 55.1884 32.0818 55.1884C32.0261 55.1884 31.9771 55.198 31.9349 55.2171C31.8935 55.2362 31.8609 55.2613 31.837 55.2923C31.8139 55.3234 31.8024 55.3568 31.8024 55.3926H31.5815C31.5815 55.3464 31.5934 55.3007 31.6173 55.2553C31.6412 55.2099 31.6754 55.1689 31.72 55.1323C31.7654 55.0949 31.8195 55.0654 31.8824 55.0439C31.9461 55.0216 32.0169 55.0105 32.095 55.0105C32.1889 55.0105 32.2717 55.0264 32.3433 55.0583C32.4158 55.0901 32.4723 55.1383 32.5129 55.2027C32.5543 55.2664 32.575 55.3464 32.575 55.4428V56.0446C32.575 56.0876 32.5786 56.1334 32.5857 56.1819C32.5937 56.2305 32.6053 56.2723 32.6204 56.3073V56.3264H32.3899C32.3788 56.301 32.37 56.2671 32.3636 56.2249C32.3573 56.1819 32.3541 56.1421 32.3541 56.1055ZM32.3923 55.5431L32.3947 55.6983H32.1714C32.1085 55.6983 32.0524 55.7035 32.003 55.7138C31.9537 55.7234 31.9123 55.7381 31.8788 55.758C31.8454 55.7779 31.8199 55.803 31.8024 55.8333C31.7849 55.8627 31.7761 55.8973 31.7761 55.9371C31.7761 55.9777 31.7853 56.0148 31.8036 56.0482C31.8219 56.0816 31.8494 56.1083 31.886 56.1282C31.9234 56.1473 31.9692 56.1569 32.0233 56.1569C32.091 56.1569 32.1507 56.1425 32.2024 56.1139C32.2542 56.0852 32.2952 56.0502 32.3254 56.0088C32.3565 55.9674 32.3732 55.9272 32.3756 55.8882L32.4699 55.9945C32.4643 56.0279 32.4492 56.0649 32.4245 56.1055C32.3999 56.1461 32.3668 56.1851 32.3254 56.2225C32.2848 56.2592 32.2363 56.2898 32.1797 56.3145C32.124 56.3384 32.0611 56.3503 31.9911 56.3503C31.9035 56.3503 31.8267 56.3332 31.7606 56.299C31.6953 56.2647 31.6444 56.219 31.6078 56.1616C31.5719 56.1035 31.554 56.0386 31.554 55.967C31.554 55.8977 31.5675 55.8368 31.5946 55.7843C31.6217 55.731 31.6607 55.6868 31.7116 55.6517C31.7626 55.6159 31.8239 55.5889 31.8955 55.5705C31.9672 55.5522 32.0472 55.5431 32.1356 55.5431H32.3923ZM33.4609 55.764L32.9713 55.0344H33.2376L33.572 55.5693H33.8299L33.7977 55.764H33.4609ZM33.5815 55.7413L33.2066 56.3264H32.9271L33.4418 55.5813L33.5815 55.7413ZM33.9433 55.0344V56.3264H33.7224V55.0344H33.9433ZM34.6968 55.0344L34.2072 55.764H33.8705L33.8359 55.5693H34.095L34.4294 55.0344H34.6968ZM34.4604 56.3264L34.0842 55.7413L34.2264 55.5813L34.7398 56.3264H34.4604ZM35.8526 56.1055V55.4404C35.8526 55.3894 35.8423 55.3452 35.8216 55.3078C35.8017 55.2696 35.7714 55.2402 35.7308 55.2195C35.6902 55.1988 35.6401 55.1884 35.5804 55.1884C35.5246 55.1884 35.4757 55.198 35.4335 55.2171C35.3921 55.2362 35.3594 55.2613 35.3356 55.2923C35.3125 55.3234 35.3009 55.3568 35.3009 55.3926H35.08C35.08 55.3464 35.092 55.3007 35.1158 55.2553C35.1397 55.2099 35.174 55.1689 35.2185 55.1323C35.2639 55.0949 35.318 55.0654 35.3809 55.0439C35.4446 55.0216 35.5155 55.0105 35.5935 55.0105C35.6874 55.0105 35.7702 55.0264 35.8419 55.0583C35.9143 55.0901 35.9708 55.1383 36.0114 55.2027C36.0528 55.2664 36.0735 55.3464 36.0735 55.4428V56.0446C36.0735 56.0876 36.0771 56.1334 36.0843 56.1819C36.0922 56.2305 36.1038 56.2723 36.1189 56.3073V56.3264H35.8884C35.8773 56.301 35.8685 56.2671 35.8622 56.2249C35.8558 56.1819 35.8526 56.1421 35.8526 56.1055ZM35.8908 55.5431L35.8932 55.6983H35.6699C35.607 55.6983 35.5509 55.7035 35.5015 55.7138C35.4522 55.7234 35.4108 55.7381 35.3774 55.758C35.3439 55.7779 35.3184 55.803 35.3009 55.8333C35.2834 55.8627 35.2747 55.8973 35.2747 55.9371C35.2747 55.9777 35.2838 56.0148 35.3021 56.0482C35.3204 56.0816 35.3479 56.1083 35.3845 56.1282C35.4219 56.1473 35.4677 56.1569 35.5218 56.1569C35.5895 56.1569 35.6492 56.1425 35.701 56.1139C35.7527 56.0852 35.7937 56.0502 35.824 56.0088C35.855 55.9674 35.8717 55.9272 35.8741 55.8882L35.9685 55.9945C35.9629 56.0279 35.9478 56.0649 35.9231 56.1055C35.8984 56.1461 35.8654 56.1851 35.824 56.2225C35.7834 56.2592 35.7348 56.2898 35.6783 56.3145C35.6226 56.3384 35.5597 56.3503 35.4896 56.3503C35.402 56.3503 35.3252 56.3332 35.2591 56.299C35.1939 56.2647 35.1429 56.219 35.1063 56.1616C35.0705 56.1035 35.0526 56.0386 35.0526 55.967C35.0526 55.8977 35.0661 55.8368 35.0932 55.7843C35.1202 55.731 35.1592 55.6868 35.2102 55.6517C35.2611 55.6159 35.3224 55.5889 35.3941 55.5705C35.4657 55.5522 35.5457 55.5431 35.6341 55.5431H35.8908ZM38.1499 54.4719H38.3314C38.3314 54.55 38.3194 54.612 38.2955 54.6582C38.2717 54.7036 38.239 54.7386 38.1976 54.7633C38.157 54.788 38.1109 54.8067 38.0591 54.8194C38.0082 54.8322 37.9552 54.8445 37.9003 54.8564C37.8318 54.8708 37.7681 54.8935 37.7092 54.9245C37.6511 54.9548 37.601 54.9978 37.5588 55.0535C37.5174 55.1092 37.4867 55.1817 37.4668 55.2708C37.4477 55.36 37.4425 55.4702 37.4513 55.6016V55.7114H37.2698V55.6016C37.2698 55.4543 37.2837 55.3257 37.3116 55.2159C37.3402 55.106 37.3804 55.0133 37.4322 54.9376C37.4839 54.862 37.5452 54.8019 37.6161 54.7573C37.6877 54.7128 37.7665 54.6821 37.8525 54.6654C37.9146 54.6534 37.968 54.6407 38.0125 54.6272C38.0571 54.6128 38.091 54.5937 38.114 54.5699C38.1379 54.546 38.1499 54.5133 38.1499 54.4719ZM37.8883 55.1084C37.9727 55.1084 38.048 55.1231 38.114 55.1526C38.1801 55.182 38.2362 55.223 38.2824 55.2756C38.3286 55.3281 38.3636 55.3902 38.3875 55.4619C38.4122 55.5327 38.4245 55.6099 38.4245 55.6935V55.7198C38.4245 55.8098 38.4114 55.8934 38.3851 55.9706C38.3596 56.047 38.3218 56.1139 38.2717 56.1712C38.2223 56.2277 38.1618 56.2719 38.0902 56.3037C38.0193 56.3356 37.9385 56.3515 37.8477 56.3515C37.757 56.3515 37.6758 56.3356 37.6041 56.3037C37.5333 56.2719 37.4728 56.2277 37.4226 56.1712C37.3725 56.1139 37.3343 56.047 37.308 55.9706C37.2825 55.8934 37.2698 55.8098 37.2698 55.7198V55.6935C37.2698 55.6736 37.2734 55.6541 37.2805 55.635C37.2877 55.6159 37.2965 55.5964 37.3068 55.5765C37.3179 55.5566 37.3279 55.5355 37.3367 55.5132C37.3661 55.4416 37.4063 55.3751 37.4573 55.3138C37.509 55.2525 37.5707 55.2031 37.6424 55.1657C37.7148 55.1275 37.7968 55.1084 37.8883 55.1084ZM37.8454 55.2887C37.7642 55.2887 37.6973 55.3074 37.6447 55.3448C37.593 55.3823 37.5544 55.432 37.5289 55.4941C37.5034 55.5554 37.4907 55.6219 37.4907 55.6935V55.7198C37.4907 55.7803 37.4979 55.8376 37.5122 55.8918C37.5265 55.9459 37.548 55.9941 37.5767 56.0363C37.6061 56.0777 37.6431 56.1103 37.6877 56.1342C37.7331 56.1581 37.7864 56.17 37.8477 56.17C37.909 56.17 37.962 56.1581 38.0066 56.1342C38.0511 56.1103 38.0878 56.0777 38.1164 56.0363C38.1451 55.9941 38.1666 55.9459 38.1809 55.8918C38.1952 55.8376 38.2024 55.7803 38.2024 55.7198V55.6935C38.2024 55.6394 38.1952 55.5881 38.1809 55.5395C38.1666 55.4909 38.1447 55.4479 38.1152 55.4105C38.0866 55.3731 38.0496 55.3437 38.0042 55.3222C37.9596 55.2999 37.9067 55.2887 37.8454 55.2887ZM39.591 54.5878L38.8662 56.4757H38.6763L39.4024 54.5878H39.591ZM40.342 56.1927L40.7014 55.0344H40.9379L40.4196 56.5259C40.4077 56.5577 40.3918 56.5919 40.3719 56.6285C40.3528 56.666 40.3281 56.7014 40.2978 56.7348C40.2676 56.7683 40.231 56.7953 40.188 56.816C40.1458 56.8375 40.0952 56.8483 40.0363 56.8483C40.0188 56.8483 39.9965 56.8459 39.9694 56.8411C39.9424 56.8363 39.9233 56.8323 39.9121 56.8292L39.9109 56.65C39.9173 56.6508 39.9272 56.6516 39.9408 56.6524C39.9551 56.654 39.9651 56.6548 39.9706 56.6548C40.0208 56.6548 40.0634 56.6481 40.0984 56.6345C40.1334 56.6218 40.1629 56.5999 40.1868 56.5688C40.2115 56.5386 40.2326 56.4968 40.2501 56.4435L40.342 56.1927ZM40.0781 55.0344L40.4137 56.0374L40.471 56.2703L40.3122 56.3515L39.8369 55.0344H40.0781ZM42.564 55.0344V56.3264H42.3419V55.0344H42.564ZM42.9975 55.0344V55.2135H41.9168V55.0344H42.9975ZM43.8022 56.3503C43.7122 56.3503 43.6306 56.3352 43.5574 56.3049C43.485 56.2739 43.4225 56.2305 43.3699 56.1748C43.3182 56.119 43.2784 56.053 43.2505 55.9765C43.2226 55.9001 43.2087 55.8165 43.2087 55.7258V55.6756C43.2087 55.5705 43.2242 55.477 43.2553 55.395C43.2863 55.3122 43.3285 55.2422 43.3819 55.1848C43.4352 55.1275 43.4957 55.0841 43.5634 55.0547C43.631 55.0252 43.7011 55.0105 43.7735 55.0105C43.8659 55.0105 43.9455 55.0264 44.0124 55.0583C44.08 55.0901 44.1354 55.1347 44.1784 55.192C44.2213 55.2485 44.2532 55.3154 44.2739 55.3926C44.2946 55.469 44.3049 55.5526 44.3049 55.6434V55.7425H43.3401V55.5622H44.084V55.5455C44.0808 55.4881 44.0689 55.4324 44.0482 55.3783C44.0283 55.3242 43.9964 55.2796 43.9527 55.2445C43.9089 55.2095 43.8492 55.192 43.7735 55.192C43.7234 55.192 43.6772 55.2027 43.635 55.2242C43.5928 55.2449 43.5566 55.276 43.5264 55.3174C43.4961 55.3588 43.4726 55.4093 43.4559 55.469C43.4392 55.5287 43.4308 55.5976 43.4308 55.6756V55.7258C43.4308 55.7871 43.4392 55.8448 43.4559 55.8989C43.4734 55.9523 43.4985 55.9992 43.5311 56.0398C43.5646 56.0804 43.6048 56.1123 43.6517 56.1354C43.6995 56.1585 43.7536 56.17 43.8141 56.17C43.8922 56.17 43.9582 56.1541 44.0124 56.1222C44.0665 56.0904 44.1139 56.0478 44.1545 55.9945L44.2882 56.1007C44.2603 56.1429 44.2249 56.1831 44.1819 56.2213C44.1389 56.2596 44.086 56.2906 44.0231 56.3145C43.961 56.3384 43.8874 56.3503 43.8022 56.3503ZM44.8589 55.0344L45.1419 55.5049L45.4285 55.0344H45.6876L45.2649 55.672L45.7007 56.3264H45.4452L45.1467 55.8416L44.8481 56.3264H44.5914L45.026 55.672L44.6045 55.0344H44.8589ZM46.9461 55.5944V55.7735H46.263V55.5944H46.9461ZM46.3096 55.0344V56.3264H46.0887V55.0344H46.3096ZM47.1252 55.0344V56.3264H46.9031V55.0344H47.1252ZM47.8666 55.9765L48.4625 55.0344H48.6846V56.3264H48.4625V55.3843L47.8666 56.3264H47.6469V55.0344H47.8666V55.9765ZM49.426 55.0344V56.3264H49.2051V55.0344H49.426ZM50.2739 55.0344L49.6613 55.7747H49.352L49.3185 55.5813H49.5717L50.0052 55.0344H50.2739ZM50.0362 56.3264L49.561 55.7413L49.7031 55.5813L50.3168 56.3264H50.0362ZM50.8947 55.9765L51.4905 55.0344H51.7126V56.3264H51.4905V55.3843L50.8947 56.3264H50.6749V55.0344H50.8947V55.9765Z" fill="black"/>
</svg>
