<svg width="34" height="24" viewBox="0 0 34 24" fill="none" xmlns="http://www.w3.org/2000/svg">
<path d="M32.8411 3.70139L12.9032 24L1.12851 12.0033C0.726081 11.5932 0.5 11.0371 0.5 10.4573C0.5 9.87743 0.726081 9.32133 1.12851 8.91131C1.53093 8.5013 2.07674 8.27095 2.64586 8.27095C3.21498 8.27095 3.76078 8.5013 4.16321 8.91131L12.9335 17.847L29.8368 0.640362C30.036 0.437342 30.2726 0.276299 30.533 0.166425C30.7933 0.0565514 31.0723 5.65969e-09 31.3541 0C31.6359 -5.65969e-09 31.915 0.0565515 32.1753 0.166425C32.4357 0.276299 32.6722 0.437342 32.8715 0.640362C33.0707 0.843382 33.2288 1.0844 33.3367 1.34966C33.4445 1.61492 33.5 1.89922 33.5 2.18633C33.5 2.47345 33.4445 2.75775 33.3367 3.02301C33.2288 3.28827 33.0707 3.52929 32.8715 3.73231L32.8411 3.70139Z" fill="#09D743"/>
</svg>
